<?xml version="1.0" encoding="UTF-8" standalone="no"?>
<svg
   xmlns:dc="http://purl.org/dc/elements/1.1/"
   xmlns:cc="http://creativecommons.org/ns#"
   xmlns:rdf="http://www.w3.org/1999/02/22-rdf-syntax-ns#"
   xmlns:svg="http://www.w3.org/2000/svg"
   xmlns="http://www.w3.org/2000/svg"
   xmlns:sodipodi="http://sodipodi.sourceforge.net/DTD/sodipodi-0.dtd"
   xmlns:inkscape="http://www.inkscape.org/namespaces/inkscape"
   width="100%"
   height="100%"
   viewBox="0 0 3308 4167"
   version="1.1"
   xml:space="preserve"
   style="fill-rule:evenodd;clip-rule:evenodd;stroke-linejoin:round;stroke-miterlimit:1.41421;"
   id="svg2"
   inkscape:version="0.48.1 r9760"
   sodipodi:docname="63.svg"><metadata
   id="metadata15"><rdf:RDF><cc:Work
       rdf:about=""><dc:format>image/svg+xml</dc:format><dc:type
         rdf:resource="http://purl.org/dc/dcmitype/StillImage" /><dc:title /></cc:Work></rdf:RDF></metadata><defs
   id="defs13">
        
        
    
            
        </defs><sodipodi:namedview
   pagecolor="#ffffff"
   bordercolor="#666666"
   borderopacity="1"
   objecttolerance="10"
   gridtolerance="10"
   guidetolerance="10"
   inkscape:pageopacity="0"
   inkscape:pageshadow="2"
   inkscape:window-width="1280"
   inkscape:window-height="776"
   id="namedview11"
   showgrid="false"
   inkscape:zoom="0.18"
   inkscape:cx="2531.5439"
   inkscape:cy="2255.8706"
   inkscape:window-x="0"
   inkscape:window-y="24"
   inkscape:window-maximized="1"
   inkscape:current-layer="svg2" />
    <path
   inkscape:connector-curvature="0"
   style="fill:none;stroke:#000000;stroke-width:0.99999726px"
   d="M 593.0478,1260.5908 C 751.38099,860.59255 1105.5473,660.59345 1522.2136,602.26038"
   id="path3000"
   class="straight" /><path
   inkscape:connector-curvature="0"
   style="fill:none;stroke:#000000;stroke-width:0.99999726px"
   d="m 1997.2132,598.09373 c 491.6662,16.66659 770.8326,241.66558 770.8326,508.33107 0,316.6652 -241.6664,437.498 -562.4995,533.3309 -262.4997,79.1663 -545.8328,137.4994 -537.4995,499.9978"
   id="path2998"
   class="straight" /><path
   inkscape:connector-curvature="0"
   style="fill:none;stroke:#000000;stroke-width:0.99999726px"
   d="m 1813.88,2139.7535 c 0,-174.9992 104.1666,-254.1655 333.3331,-308.332 549.9995,-129.1661 895.8325,-237.4989 895.8325,-724.9967 0,-449.998 -487.4996,-691.66358 -1199.9989,-691.66358 -437.4996,0 -845.8326,137.49938 -1070.83239,320.83189 C 538.88118,927.25892 434.71461,964.75875 334.7147,902.25903 226.38147,835.59266 238.88145,702.25993 293.04807,618.92697 347.21469,535.59401 451.38126,489.76088 580.54781,535.59401"
   id="path3004"
   class="curl" /><path
   inkscape:connector-curvature="0"
   style="fill:none;stroke:#000000;stroke-width:0.99999726px"
   d="m 1138.8806,1277.2574 c 70.8333,0 129.1666,45.8331 129.1666,116.6661 0,70.833 -58.3333,120.8328 -154.1665,120.8328 -62.5,0 -204.16652,-45.8331 -204.16652,-237.4989 0,-299.9987 420.83292,-516.6644 891.66582,-516.6644 470.8329,0 699.9994,158.33262 699.9994,349.9984 0,479.1646 -999.9991,229.1657 -999.9991,1029.1621"
   id="path3002"
   class="curl" /><path
   inkscape:connector-curvature="0"
   style="fill:none;stroke:#000000;stroke-width:0.99999726px"
   d="m 1668.0468,3389.7479 c 237.4998,0 416.6663,-195.8325 416.6663,-437.4981 0,-237.4989 -179.1665,-424.998 -416.6663,-424.998 -241.6664,0 -437.4996,158.3326 -437.4996,395.8315 0,212.4991 149.9999,333.3319 345.833,333.3319 183.3332,0 341.6664,-120.8328 341.6664,-299.9987 0,-179.1659 -154.1665,-254.1655 -224.9998,-254.1655"
   id="path9"
   class="curl" />
</svg>