<?xml version="1.0" encoding="UTF-8" standalone="no"?>
<svg
   xmlns:dc="http://purl.org/dc/elements/1.1/"
   xmlns:cc="http://creativecommons.org/ns#"
   xmlns:rdf="http://www.w3.org/1999/02/22-rdf-syntax-ns#"
   xmlns:svg="http://www.w3.org/2000/svg"
   xmlns="http://www.w3.org/2000/svg"
   xmlns:sodipodi="http://sodipodi.sourceforge.net/DTD/sodipodi-0.dtd"
   xmlns:inkscape="http://www.inkscape.org/namespaces/inkscape"
   width="100%"
   height="100%"
   viewBox="0 0 4010 4167"
   version="1.1"
   xml:space="preserve"
   style="fill-rule:evenodd;clip-rule:evenodd;stroke-linejoin:round;stroke-miterlimit:1.41421;"
   id="svg2"
   inkscape:version="0.48.1 r9760"
   sodipodi:docname="65.svg"><metadata
   id="metadata15"><rdf:RDF><cc:Work
       rdf:about=""><dc:format>image/svg+xml</dc:format><dc:type
         rdf:resource="http://purl.org/dc/dcmitype/StillImage" /><dc:title /></cc:Work></rdf:RDF></metadata><defs
   id="defs13">
        
        
    
            
        </defs><sodipodi:namedview
   pagecolor="#ffffff"
   bordercolor="#666666"
   borderopacity="1"
   objecttolerance="10"
   gridtolerance="10"
   guidetolerance="10"
   inkscape:pageopacity="0"
   inkscape:pageshadow="2"
   inkscape:window-width="1280"
   inkscape:window-height="776"
   id="namedview11"
   showgrid="false"
   inkscape:zoom="0.17"
   inkscape:cx="3387.155"
   inkscape:cy="2083.5"
   inkscape:window-x="0"
   inkscape:window-y="24"
   inkscape:window-maximized="1"
   inkscape:current-layer="svg2" />
    <path
   style="fill:none;stroke:#000000;stroke-width:0.99999988px"
   d="m 1465.784,2905.2072 c 133.3339,0 233.3343,83.333 233.3343,212.4991 0,124.9994 -87.5004,216.6657 -237.501,216.6657 -125.0006,0 -341.6681,-70.833 -341.6681,-387.4983 0,-337.4985 270.8344,-795.8298 437.5018,-1141.6615 l 245.8344,-512.4977 245.8344,512.4977 c 166.6673,349.9984 429.1684,804.163 429.1684,1141.6615 0,316.6653 -216.6675,387.4983 -341.6681,387.4983 -150.0006,0 -237.501,-91.6663 -237.501,-216.6657 0,-129.1661 100.0004,-212.4991 233.3343,-212.4991"
   id="path3004"
   class="curl"
   inkscape:connector-curvature="0" /><path
   style="fill:none;stroke:#000000;stroke-width:0.99999988px"
   d="m 1899.1191,413.55173 c -12.5,308.33195 129.1672,620.83057 266.6678,929.16247 l 591.6692,1333.3274 c 95.8337,216.6657 195.8341,437.498 229.1676,654.1637"
   id="path3002"
   class="straight"
   inkscape:connector-curvature="0" /><path
   style="fill:none;stroke:#000000;stroke-width:0.99999988px"
   d="m 965.78184,2138.544 c 0,133.3327 -87.50037,220.8323 -233.33432,220.8323 -141.66727,0 -229.16764,-120.8327 -229.16764,-270.8321 0,-162.4992 141.66727,-295.832 395.83501,-295.832 270.83451,0 700.00301,216.6657 916.67051,437.4981 216.6676,-220.8324 729.1698,-595.8307 1316.6723,-595.8307 383.3349,0 591.6691,183.3325 591.6691,399.9982 0,191.6658 -108.3337,324.9985 -291.6679,324.9985 -183.3341,0 -295.8345,-112.4994 -295.8345,-283.332"
   id="path3000"
   class="straight"
   inkscape:connector-curvature="0" /><path
   style="fill:none;stroke:#000000;stroke-width:0.99999988px"
   d="m 394.94609,2671.8749 c -200.00085,0 -354.168166,129.1661 -354.168166,329.1652 0,191.6658 116.667156,329.1652 345.834796,329.1652 191.66748,0 325.00138,-170.8325 454.16859,-470.8312 133.3339,-308.3319 266.66779,-595.8307 420.83509,-916.6626 166.6674,-345.8317 395.835,-762.4965 395.835,-1099.99502 0,-316.66525 -175.0007,-429.16475 -366.6682,-429.16475 -229.1676,0 -358.33484,137.49939 -358.33484,329.16519 0,199.99911 154.16734,329.16518 354.16814,329.16518"
   id="path2998"
   class="curl"
   inkscape:connector-curvature="0" /><path
   style="fill:none;stroke:#000000;stroke-width:0.99999988px"
   d="m 2719.9559,1071.8821 c 200.0009,0 354.1682,-129.16607 354.1682,-329.16518 0,-191.6658 -129.1672,-329.16519 -358.3349,-329.16519 -191.6674,0 -366.6682,112.4995 -366.6682,429.16475 0,337.49852 229.1677,754.16332 395.835,1099.99502 154.1674,320.8319 287.5013,608.3307 420.8351,916.6626 129.1673,299.9987 262.5012,470.8312 454.1686,470.8312 229.1677,0 345.8348,-137.4994 345.8348,-329.1652 0,-199.9991 -154.1673,-329.1652 -354.1681,-329.1652"
   id="path9"
   class="curl"
   inkscape:connector-curvature="0" />
</svg>