<?xml version="1.0" encoding="UTF-8" standalone="no"?>
<svg
   xmlns:dc="http://purl.org/dc/elements/1.1/"
   xmlns:cc="http://creativecommons.org/ns#"
   xmlns:rdf="http://www.w3.org/1999/02/22-rdf-syntax-ns#"
   xmlns:svg="http://www.w3.org/2000/svg"
   xmlns="http://www.w3.org/2000/svg"
   xmlns:sodipodi="http://sodipodi.sourceforge.net/DTD/sodipodi-0.dtd"
   xmlns:inkscape="http://www.inkscape.org/namespaces/inkscape"
   width="100%"
   height="100%"
   viewBox="0 0 3817 4167"
   version="1.1"
   xml:space="preserve"
   style="fill-rule:evenodd;clip-rule:evenodd;stroke-linejoin:round;stroke-miterlimit:1.41421;"
   id="svg2"
   inkscape:version="0.48.1 r9760"
   sodipodi:docname="68.svg"><metadata
   id="metadata15"><rdf:RDF><cc:Work
       rdf:about=""><dc:format>image/svg+xml</dc:format><dc:type
         rdf:resource="http://purl.org/dc/dcmitype/StillImage" /><dc:title /></cc:Work></rdf:RDF></metadata><defs
   id="defs13">
        
        
    
            
        </defs><sodipodi:namedview
   pagecolor="#ffffff"
   bordercolor="#666666"
   borderopacity="1"
   objecttolerance="10"
   gridtolerance="10"
   guidetolerance="10"
   inkscape:pageopacity="0"
   inkscape:pageshadow="2"
   inkscape:window-width="1280"
   inkscape:window-height="776"
   id="namedview11"
   showgrid="false"
   inkscape:zoom="0.14398848"
   inkscape:cx="3740.5369"
   inkscape:cy="2083.5"
   inkscape:window-x="0"
   inkscape:window-y="24"
   inkscape:window-maximized="1"
   inkscape:current-layer="svg2" />
    <path
   style="fill:none;stroke:#000000;stroke-width:0.99999779px"
   d="m 1224.9138,409.60261 0,2916.65359"
   id="path3008"
   class="straight"
   inkscape:connector-curvature="0" /><path
   style="fill:none;stroke:#000000;stroke-width:0.99999779px"
   d="m 583.247,2667.9258 c -200.00003,0 -354.16672,129.1661 -354.16672,329.1652 0,191.6658 116.66668,329.1652 345.83338,329.1652 191.6667,0 354.16672,-154.166 354.16672,-470.8312 l 0,-1974.99117 c 0,-316.66525 -162.50002,-470.83122 -354.16672,-470.83122 -229.1667,0 -345.83338,137.49938 -345.83338,329.16519 0,199.9991 154.16669,329.1652 354.16672,329.1652"
   id="path3006"
   class="curl"
   inkscape:connector-curvature="0" /><path
   style="fill:none;stroke:#000000;stroke-width:0.99999779px"
   d="m 3583.2475,1876.2627 c 0,-1070.82853 -812.5002,-1520.82652 -1612.5003,-1520.82652 -250,0 -445.8334,183.33251 -445.8334,587.49737 l 0,1849.99175 c 0,404.1648 195.8334,599.9973 445.8334,599.9973 1037.5002,0 1612.5003,-658.3304 1612.5003,-1516.6599"
   id="path3004"
   class="curl"
   inkscape:connector-curvature="0" /><path
   id="path2998"
   style="fill:none;stroke:#000000;stroke-width:0.99999779px"
   d="m 2212.4139,3180.4235 c 583.3334,-116.6661 949.8972,-527.9281 949.8972,-1307.0907 0,-779.1627 -366.5663,-1188.73143 -949.8997,-1305.39757"
   inkscape:connector-curvature="0"
   sodipodi:nodetypes="ccc"
   class="straight" /><path
   id="path9"
   style="fill:none;stroke:#000000;stroke-width:0.99999779px"
   d="m 1970.7472,726.26785 c 570.8334,0 804.088,538.67065 804.0879,1147.00025 -10e-5,608.3295 -233.2545,1148.8228 -804.0879,1148.8228"
   inkscape:connector-curvature="0"
   sodipodi:nodetypes="ccc"
   class="curl" />
</svg>