<?xml version="1.0" encoding="UTF-8" standalone="no"?>
<svg
   xmlns:dc="http://purl.org/dc/elements/1.1/"
   xmlns:cc="http://creativecommons.org/ns#"
   xmlns:rdf="http://www.w3.org/1999/02/22-rdf-syntax-ns#"
   xmlns:svg="http://www.w3.org/2000/svg"
   xmlns="http://www.w3.org/2000/svg"
   xmlns:sodipodi="http://sodipodi.sourceforge.net/DTD/sodipodi-0.dtd"
   xmlns:inkscape="http://www.inkscape.org/namespaces/inkscape"
   width="100%"
   height="100%"
   viewBox="0 0 3497 4167"
   version="1.1"
   xml:space="preserve"
   style="fill-rule:evenodd;clip-rule:evenodd;stroke-linejoin:round;stroke-miterlimit:1.41421;"
   id="svg2"
   inkscape:version="0.48.1 r9760"
   sodipodi:docname="70.svg"><metadata
   id="metadata15"><rdf:RDF><cc:Work
       rdf:about=""><dc:format>image/svg+xml</dc:format><dc:type
         rdf:resource="http://purl.org/dc/dcmitype/StillImage" /><dc:title /></cc:Work></rdf:RDF></metadata><defs
   id="defs13">
        
        
    
            
        </defs><sodipodi:namedview
   pagecolor="#ffffff"
   bordercolor="#666666"
   borderopacity="1"
   objecttolerance="10"
   gridtolerance="10"
   guidetolerance="10"
   inkscape:pageopacity="0"
   inkscape:pageshadow="2"
   inkscape:window-width="1280"
   inkscape:window-height="776"
   id="namedview11"
   showgrid="false"
   inkscape:zoom="0.14398848"
   inkscape:cx="3058.6029"
   inkscape:cy="2083.5"
   inkscape:window-x="0"
   inkscape:window-y="24"
   inkscape:window-maximized="1"
   inkscape:current-layer="svg2" />
    <path
   style="fill:none;stroke:#000000;stroke-width:0.99999839px"
   d="m 1230.5359,411.35414 0,2916.65356"
   id="path3006"
   class="straight"
   inkscape:connector-curvature="0" /><path
   style="fill:none;stroke:#000000;stroke-width:0.99999839px"
   d="m 588.86835,2669.6774 c -200.00026,0 -354.16713,129.166 -354.16713,329.1651 0,191.6659 116.66682,329.1652 345.83378,329.1652 191.66692,0 354.16713,-154.1659 354.16713,-470.8312 l 0,-1974.99114 c 0,-316.66524 -162.50021,-470.83122 -354.16713,-470.83122 -229.16696,0 -345.83378,137.49938 -345.83378,329.16519 0,199.99911 154.16687,329.16517 354.16713,329.16517"
   id="path3004"
   class="curl"
   inkscape:connector-curvature="0" /><path
   id="path2998"
   style="fill:none;stroke:#000000;stroke-width:0.99999839px"
   d="m 2022.2035,1503.0159 c 0,-158.3326 108.3335,-291.6653 266.6671,-291.6653 158.3335,0 279.167,79.1663 279.167,266.6654 0,162.4993 -141.6669,266.6655 -354.1671,266.6655 l -683.3343,0 0,-799.99642 c 0,-404.16485 145.8336,-533.33094 329.1671,-533.33094 104.1668,0 245.8337,62.49972 300.0004,233.33229 104.1668,-108.33285 391.6672,-233.33229 629.1675,-233.33229 325.0004,0 475.0006,179.16586 475.0006,370.83167 0,229.16569 -166.6668,349.99839 -354.1671,349.99839 -204.1669,0 -316.6671,-158.33258 -308.3337,-279.16537"
   inkscape:connector-curvature="0"
   sodipodi:nodetypes="cssscsscsssc"
   class="curl" /><path
   id="path9"
   style="fill:none;stroke:#000000;stroke-width:0.99999839px"
   d="m 1876.37,2669.6774 c 200.0003,0 354.1672,129.166 354.1672,329.1651 0,191.6659 -116.6669,329.1652 -345.8338,329.1652 -191.6669,0 -354.1672,-154.1659 -354.1672,-470.8312 l 0,-862.4961 683.3343,0 c 212.5002,0 354.1671,104.1662 354.1671,266.6655 0,187.4991 -120.8335,266.6654 -279.167,266.6654 -158.3336,0 -266.6671,-133.3327 -266.6671,-291.6653"
   inkscape:connector-curvature="0"
   sodipodi:nodetypes="cssscsssc"
   class="curl" />
</svg>