<?xml version="1.0" encoding="UTF-8" standalone="no"?>
<svg
   xmlns:dc="http://purl.org/dc/elements/1.1/"
   xmlns:cc="http://creativecommons.org/ns#"
   xmlns:rdf="http://www.w3.org/1999/02/22-rdf-syntax-ns#"
   xmlns:svg="http://www.w3.org/2000/svg"
   xmlns="http://www.w3.org/2000/svg"
   xmlns:sodipodi="http://sodipodi.sourceforge.net/DTD/sodipodi-0.dtd"
   xmlns:inkscape="http://www.inkscape.org/namespaces/inkscape"
   width="100%"
   height="100%"
   viewBox="0 0 4498 4167"
   version="1.1"
   xml:space="preserve"
   style="fill-rule:evenodd;clip-rule:evenodd;stroke-linejoin:round;stroke-miterlimit:1.41421;"
   id="svg2"
   inkscape:version="0.48.1 r9760"
   sodipodi:docname="H.svg"><metadata
   id="metadata15"><rdf:RDF><cc:Work
       rdf:about=""><dc:format>image/svg+xml</dc:format><dc:type
         rdf:resource="http://purl.org/dc/dcmitype/StillImage" /><dc:title></dc:title></cc:Work></rdf:RDF></metadata><defs
   id="defs13">
        
        
    
            
        </defs><sodipodi:namedview
   pagecolor="#ffffff"
   bordercolor="#666666"
   borderopacity="1"
   objecttolerance="10"
   gridtolerance="10"
   guidetolerance="10"
   inkscape:pageopacity="0"
   inkscape:pageshadow="2"
   inkscape:window-width="1280"
   inkscape:window-height="776"
   id="namedview11"
   showgrid="false"
   inkscape:zoom="0.13960365"
   inkscape:cx="3732.7452"
   inkscape:cy="2083.5"
   inkscape:window-x="0"
   inkscape:window-y="24"
   inkscape:window-maximized="1"
   inkscape:current-layer="svg2" />
    <path
   style="fill:none;stroke:#000000;stroke-width:0.99999768px"
   d="m 3274.895,415.33327 0,2916.65363"
   id="path3010"
   class="straight"
   inkscape:connector-curvature="0" /><path
   style="fill:none;stroke:#000000;stroke-width:0.99999768px"
   d="m 3916.5616,2673.6565 c 200,0 354.1666,129.1661 354.1666,329.1652 0,191.6658 -116.6666,329.1652 -345.8333,329.1652 -191.6666,0 -354.1666,-154.166 -354.1666,-470.8313 l 0,-1974.99111 c 0,-316.66524 162.5,-470.83122 354.1666,-470.83122 229.1667,0 345.8333,137.49938 345.8333,329.16519 0,199.99911 -154.1666,329.16524 -354.1666,329.16524"
   id="path3008"
   class="curl"
   inkscape:connector-curvature="0" /><path
   style="fill:none;stroke:#000000;stroke-width:0.99999768px"
   d="m 2699.8951,944.49757 c -133.3333,-108.33285 -175,-187.49916 -175,-316.66525 0,-124.99944 75,-212.49905 220.8333,-212.49905 125,0 229.1667,99.99955 229.1667,304.1653 l 0,2308.32303 c 0,204.1657 -104.1667,304.1653 -229.1667,304.1653 -145.8333,0 -220.8333,-87.4996 -220.8333,-212.4991 0,-129.1661 41.6667,-208.3324 175,-316.6652"
   id="path3006"
   class="curl"
   inkscape:connector-curvature="0" /><path
   style="fill:none;stroke:#000000;stroke-width:0.99999768px"
   d="m 2974.8951,2098.6591 c -395.8333,-83.333 -870.8333,-33.3332 -870.8333,270.8321 0,91.6662 62.5,162.4993 145.8334,162.4993 79.1666,0 145.8333,-70.8331 145.8333,-162.4993 0,-304.1653 -437.5,-354.1651 -870.8332,-270.8321"
   id="path3004"
   class="straight"
   inkscape:connector-curvature="0" /><path
   style="fill:none;stroke:#000000;stroke-width:0.99999768px"
   d="m 1524.8953,1752.8273 c 433.3332,83.3329 870.8332,33.3332 870.8332,-270.8321 0,-91.6663 -66.6667,-162.4993 -145.8333,-162.4993 -83.3334,0 -145.8334,70.833 -145.8334,162.4993 0,304.1653 475,354.165 870.8333,270.8321"
   id="path3002"
   class="straight"
   inkscape:connector-curvature="0" /><path
   style="fill:none;stroke:#000000;stroke-width:0.99999768px"
   d="m 1224.8953,415.33327 0,2916.65363"
   id="path3000"
   class="straight"
   inkscape:connector-curvature="0" /><path
   style="fill:none;stroke:#000000;stroke-width:0.99999768px"
   d="m 583.22871,2673.6565 c -199.99997,0 -354.16661,129.1661 -354.16661,329.1652 0,191.6658 116.66665,329.1652 345.83328,329.1652 191.66664,0 354.16662,-154.166 354.16662,-470.8313 l 0,-1974.99111 c 0,-316.66524 -162.49998,-470.83122 -354.16662,-470.83122 -229.16663,0 -345.83328,137.49938 -345.83328,329.16519 0,199.99911 154.16664,329.16524 354.16661,329.16524"
   id="path2998"
   class="curl"
   inkscape:connector-curvature="0" /><path
   style="fill:none;stroke:#000000;stroke-width:0.99999768px"
   d="m 1799.8952,944.49757 c 133.3333,-108.33285 175,-187.49916 175,-316.66525 0,-124.99944 -75,-212.49905 -220.8333,-212.49905 -125,0 -229.1666,99.99955 -229.1666,304.1653 l 0,2308.32303 c 0,204.1657 104.1666,304.1653 229.1666,304.1653 145.8333,0 220.8333,-87.4996 220.8333,-212.4991 0,-129.1661 -41.6667,-208.3324 -175,-316.6652"
   id="path9"
   class="curl"
   inkscape:connector-curvature="0" />
</svg>