<?xml version="1.0" encoding="UTF-8" standalone="no"?>
<svg
   xmlns:dc="http://purl.org/dc/elements/1.1/"
   xmlns:cc="http://creativecommons.org/ns#"
   xmlns:rdf="http://www.w3.org/1999/02/22-rdf-syntax-ns#"
   xmlns:svg="http://www.w3.org/2000/svg"
   xmlns="http://www.w3.org/2000/svg"
   xmlns:sodipodi="http://sodipodi.sourceforge.net/DTD/sodipodi-0.dtd"
   xmlns:inkscape="http://www.inkscape.org/namespaces/inkscape"
   width="100%"
   height="100%"
   viewBox="0 0 2456 4167"
   version="1.1"
   xml:space="preserve"
   style="fill-rule:evenodd;clip-rule:evenodd;stroke-linejoin:round;stroke-miterlimit:1.41421;"
   id="svg2"
   inkscape:version="0.48.1 r9760"
   sodipodi:docname="I.svg"><metadata
   id="metadata15"><rdf:RDF><cc:Work
       rdf:about=""><dc:format>image/svg+xml</dc:format><dc:type
         rdf:resource="http://purl.org/dc/dcmitype/StillImage" /><dc:title></dc:title></cc:Work></rdf:RDF></metadata><defs
   id="defs13">
        
        
    
            
        </defs><sodipodi:namedview
   pagecolor="#ffffff"
   bordercolor="#666666"
   borderopacity="1"
   objecttolerance="10"
   gridtolerance="10"
   guidetolerance="10"
   inkscape:pageopacity="0"
   inkscape:pageshadow="2"
   inkscape:window-width="1280"
   inkscape:window-height="776"
   id="namedview11"
   showgrid="false"
   inkscape:zoom="0.13960365"
   inkscape:cx="1228"
   inkscape:cy="2083.5"
   inkscape:window-x="0"
   inkscape:window-y="24"
   inkscape:window-maximized="1"
   inkscape:current-layer="svg2" />
    <path
   style="fill:none;stroke:#000000;stroke-width:0.99999732px"
   d="m 1227.0365,418.90618 0,2916.65362"
   id="path3000"
   class="straight"
   inkscape:connector-curvature="0" /><path
   style="fill:none;stroke:#000000;stroke-width:0.99999732px"
   d="m 585.37044,2677.2294 c -199.99982,0 -354.16635,129.1661 -354.16635,329.1652 0,191.6658 116.66656,329.1652 345.83303,329.1652 191.66649,0 354.16635,-154.166 354.16635,-470.8312 l 0,-1974.9912 c 0,-316.66524 -162.49986,-470.83122 -354.16635,-470.83122 -229.16647,0 -345.83303,137.49938 -345.83303,329.16519 0,199.99911 154.16653,329.16523 354.16635,329.16523"
   id="path2998"
   class="curl"
   inkscape:connector-curvature="0" /><path
   style="fill:none;stroke:#000000;stroke-width:0.99999732px"
   d="m 1872.8693,1077.2366 c 199.9998,0 354.1664,-129.16612 354.1664,-329.16523 0,-191.66581 -116.6666,-329.16519 -345.8331,-329.16519 -191.6665,0 -354.1663,154.16598 -354.1663,470.83122 l 0,1974.9912 c 0,316.6652 162.4998,470.8312 354.1663,470.8312 229.1665,0 345.8331,-137.4994 345.8331,-329.1652 0,-199.9991 -154.1666,-329.1652 -354.1664,-329.1652"
   id="path9"
   class="curl"
   inkscape:connector-curvature="0" />
</svg>