<?xml version="1.0" encoding="UTF-8" standalone="no"?>
<svg
   xmlns:dc="http://purl.org/dc/elements/1.1/"
   xmlns:cc="http://creativecommons.org/ns#"
   xmlns:rdf="http://www.w3.org/1999/02/22-rdf-syntax-ns#"
   xmlns:svg="http://www.w3.org/2000/svg"
   xmlns="http://www.w3.org/2000/svg"
   xmlns:sodipodi="http://sodipodi.sourceforge.net/DTD/sodipodi-0.dtd"
   xmlns:inkscape="http://www.inkscape.org/namespaces/inkscape"
   width="100%"
   height="100%"
   viewBox="0 0 3790 4167"
   version="1.1"
   xml:space="preserve"
   style="fill-rule:evenodd;clip-rule:evenodd;stroke-linejoin:round;stroke-miterlimit:1.41421;"
   id="svg2"
   inkscape:version="0.48.1 r9760"
   sodipodi:docname="J.svg"><metadata
   id="metadata15"><rdf:RDF><cc:Work
       rdf:about=""><dc:format>image/svg+xml</dc:format><dc:type
         rdf:resource="http://purl.org/dc/dcmitype/StillImage" /><dc:title></dc:title></cc:Work></rdf:RDF></metadata><defs
   id="defs13">
        
        
    
            
        </defs><sodipodi:namedview
   pagecolor="#ffffff"
   bordercolor="#666666"
   borderopacity="1"
   objecttolerance="10"
   gridtolerance="10"
   guidetolerance="10"
   inkscape:pageopacity="0"
   inkscape:pageshadow="2"
   inkscape:window-width="1280"
   inkscape:window-height="776"
   id="namedview11"
   showgrid="false"
   inkscape:zoom="0.13960365"
   inkscape:cx="3794.2823"
   inkscape:cy="2083.5"
   inkscape:window-x="0"
   inkscape:window-y="24"
   inkscape:window-maximized="1"
   inkscape:current-layer="svg2" />
    <path
   style="fill:none;stroke:#000000;stroke-width:0.9999972px"
   d="m 1815.3369,3183.9866 c 429.1662,-16.6666 741.6658,-237.499 741.6658,-974.9957 l 0,-1795.82527"
   id="path3002"
   class="straight"
   inkscape:connector-curvature="0" /><path
   style="fill:none;stroke:#000000;stroke-width:0.9999972px"
   d="m 1869.5035,908.99674 c -149.9999,0 -266.6664,-95.8329 -266.6664,-245.83223 0,-145.83268 87.4999,-249.99888 258.3331,-249.99888 145.8331,0 308.3329,70.83302 308.3329,387.49827 l 0,1533.3265 c 0,483.3311 -191.6664,691.6635 -504.1661,691.6635 -354.1662,0 -483.3328,-316.6652 -474.9994,-591.664 8.3333,-262.4988 191.6664,-324.9985 279.1663,-324.9985 129.1665,0 204.1665,66.6663 204.1665,162.4992 0,95.8329 -75,158.3327 -174.9998,158.3327"
   id="path3000"
   class="curl"
   inkscape:connector-curvature="0" /><path
   style="fill:none;stroke:#000000;stroke-width:0.9999972px"
   d="m 873.67126,2217.3242 c 20.83331,579.1641 204.16644,858.3295 545.83274,949.9958"
   id="path2998"
   class="straight"
   inkscape:connector-curvature="0" /><path
   style="fill:none;stroke:#000000;stroke-width:0.9999972px"
   d="m 327.83854,2596.4892 c -141.66651,-20.8333 -212.49976,-108.3329 -224.99975,-204.1658 -8.333323,-95.8329 62.49993,-216.6657 191.66645,-224.999 116.66654,-8.3333 258.33305,37.4999 308.33299,279.1655 137.49985,683.3302 599.99937,949.9957 1191.66537,949.9957 733.3325,0 1183.332,-449.998 1183.332,-1187.4947 l 0,-1324.99404 c 0,-316.66525 162.4998,-470.83123 354.1662,-470.83123 229.1665,0 345.833,137.49939 345.833,329.16519 0,199.99911 -154.1665,329.16518 -354.1663,329.16518"
   id="path9"
   class="curl"
   inkscape:connector-curvature="0" />
</svg>