<?xml version="1.0" encoding="UTF-8" standalone="no"?>
<svg
   xmlns:dc="http://purl.org/dc/elements/1.1/"
   xmlns:cc="http://creativecommons.org/ns#"
   xmlns:rdf="http://www.w3.org/1999/02/22-rdf-syntax-ns#"
   xmlns:svg="http://www.w3.org/2000/svg"
   xmlns="http://www.w3.org/2000/svg"
   xmlns:sodipodi="http://sodipodi.sourceforge.net/DTD/sodipodi-0.dtd"
   xmlns:inkscape="http://www.inkscape.org/namespaces/inkscape"
   width="100%"
   height="100%"
   viewBox="0 0 3991 4167"
   version="1.1"
   xml:space="preserve"
   style="fill-rule:evenodd;clip-rule:evenodd;stroke-linejoin:round;stroke-miterlimit:1.41421;"
   id="svg2"
   inkscape:version="0.48.1 r9760"
   sodipodi:docname="K.svg"><metadata
   id="metadata15"><rdf:RDF><cc:Work
       rdf:about=""><dc:format>image/svg+xml</dc:format><dc:type
         rdf:resource="http://purl.org/dc/dcmitype/StillImage" /><dc:title></dc:title></cc:Work></rdf:RDF></metadata><defs
   id="defs13">
        
        
    
            
        </defs><sodipodi:namedview
   pagecolor="#ffffff"
   bordercolor="#666666"
   borderopacity="1"
   objecttolerance="10"
   gridtolerance="10"
   guidetolerance="10"
   inkscape:pageopacity="0"
   inkscape:pageshadow="2"
   inkscape:window-width="1280"
   inkscape:window-height="776"
   id="namedview11"
   showgrid="false"
   inkscape:zoom="0.13960365"
   inkscape:cx="3662.7593"
   inkscape:cy="2083.5"
   inkscape:window-x="0"
   inkscape:window-y="24"
   inkscape:window-maximized="1"
   inkscape:current-layer="svg2" />
    <path
   style="fill:none;stroke:#000000;stroke-width:0.99999827px"
   d="m 2215.0157,835.87831 c -125.0001,-33.33319 -220.8335,-83.33296 -220.8335,-212.49905 0,-124.99944 116.6668,-216.6657 258.3336,-216.6657 150.0001,0 262.5002,87.49961 262.5002,208.3324 0,108.33285 -12.5,183.33251 -150.0001,312.4986 -245.8336,237.49894 -595.834,537.49764 -816.6675,720.83014"
   id="path3010"
   class="curl"
   inkscape:connector-curvature="0" /><path
   style="fill:none;stroke:#000000;stroke-width:0.99999827px"
   d="m 3381.6836,1027.5441 c 200.0003,0 395.8338,-129.16607 395.8338,-329.16518 0,-191.66581 -116.6668,-287.49871 -300.0003,-287.49871 -237.5003,0 -395.8338,216.6657 -750.0008,529.1643 -329.167,291.66539 -762.5008,674.99699 -1183.3346,1045.82869"
   id="path3008"
   class="curl"
   inkscape:connector-curvature="0" /><path
   style="fill:none;stroke:#000000;stroke-width:0.99999827px"
   d="m 1844.182,1723.3743 295.8336,383.3316 c 454.1672,587.4974 666.6674,1004.1622 737.5008,1220.8279"
   id="path3006"
   class="straight"
   inkscape:connector-curvature="0" /><path
   style="fill:none;stroke:#000000;stroke-width:0.99999827px"
   d="m 2069.1822,1523.3752 c 350.0004,449.998 683.3341,941.6625 933.3344,1291.6609 225.0002,312.4986 366.667,512.4977 579.1673,512.4977 187.5002,0 300.0003,-124.9994 300.0003,-316.6652 0,-199.9991 -175.0002,-299.9987 -375.0004,-299.9987"
   id="path3004"
   class="curl"
   inkscape:connector-curvature="0" /><path
   style="fill:none;stroke:#000000;stroke-width:0.99999827px"
   d="m 1610.8484,1927.5401 c 216.6669,262.4988 470.8339,616.6639 645.834,879.1627 83.3335,124.9995 112.5002,233.3323 116.6668,295.832 4.1667,133.3328 -87.5001,229.1657 -216.6669,229.1657 -150.0001,0 -237.5002,-91.6663 -237.5002,-216.6657 0,-129.1661 100.0001,-212.4991 233.3336,-212.4991"
   id="path3002"
   class="curl"
   inkscape:connector-curvature="0" /><path
   style="fill:none;stroke:#000000;stroke-width:0.99999827px"
   d="m 1248.348,410.88021 0,2916.65359"
   id="path3000"
   class="straight"
   inkscape:connector-curvature="0" /><path
   style="fill:none;stroke:#000000;stroke-width:0.99999827px"
   d="m 606.68069,2669.2034 c -200.00022,0 -354.16705,129.1661 -354.16705,329.1652 0,191.6658 116.66679,329.1652 345.8337,329.1652 191.66687,0 354.16705,-154.166 354.16705,-470.8312 l 0,-1974.99117 c 0,-316.66524 -162.50018,-470.83122 -354.16705,-470.83122 -229.16691,0 -345.8337,137.49938 -345.8337,329.16519 0,199.99911 154.16683,329.1652 354.16705,329.1652"
   id="path2998"
   class="curl"
   inkscape:connector-curvature="0" /><path
   style="fill:none;stroke:#000000;stroke-width:0.99999827px"
   d="m 1548.3484,410.88021 0,2916.65359"
   id="path9"
   class="curl"
   inkscape:connector-curvature="0" />
</svg>