<?xml version="1.0" encoding="UTF-8" standalone="no"?>
<svg
   xmlns:dc="http://purl.org/dc/elements/1.1/"
   xmlns:cc="http://creativecommons.org/ns#"
   xmlns:rdf="http://www.w3.org/1999/02/22-rdf-syntax-ns#"
   xmlns:svg="http://www.w3.org/2000/svg"
   xmlns="http://www.w3.org/2000/svg"
   xmlns:sodipodi="http://sodipodi.sourceforge.net/DTD/sodipodi-0.dtd"
   xmlns:inkscape="http://www.inkscape.org/namespaces/inkscape"
   width="100%"
   height="100%"
   viewBox="0 0 4110 4167"
   version="1.1"
   xml:space="preserve"
   style="fill-rule:evenodd;clip-rule:evenodd;stroke-linejoin:round;stroke-miterlimit:1.41421;"
   id="svg2"
   inkscape:version="0.48.1 r9760"
   sodipodi:docname="N.svg"><metadata
   id="metadata15"><rdf:RDF><cc:Work
       rdf:about=""><dc:format>image/svg+xml</dc:format><dc:type
         rdf:resource="http://purl.org/dc/dcmitype/StillImage" /><dc:title></dc:title></cc:Work></rdf:RDF></metadata><defs
   id="defs13">
        
        
    
            
        </defs><sodipodi:namedview
   pagecolor="#ffffff"
   bordercolor="#666666"
   borderopacity="1"
   objecttolerance="10"
   gridtolerance="10"
   guidetolerance="10"
   inkscape:pageopacity="0"
   inkscape:pageshadow="2"
   inkscape:window-width="1280"
   inkscape:window-height="776"
   id="namedview11"
   showgrid="false"
   inkscape:zoom="0.13960365"
   inkscape:cx="4000.6481"
   inkscape:cy="2083.5"
   inkscape:window-x="0"
   inkscape:window-y="24"
   inkscape:window-maximized="1"
   inkscape:current-layer="svg2" />
    <path
   style="fill:none;stroke:#000000;stroke-width:0.99999672px"
   d="m 585.71555,2675.9632 c -199.9996,0 -354.16595,129.1661 -354.16595,329.1652 0,191.6658 116.66643,329.1652 345.83263,329.1652 191.66628,0 354.16595,-154.166 354.16595,-470.8312 l 0,-1974.9912 c 0,-316.66524 -162.49967,-470.83122 -354.16595,-470.83122 -229.1662,0 -345.83263,137.49938 -345.83263,329.16519 0,199.99911 154.16635,329.16523 354.16595,329.16523"
   id="path3004"
   class="curl"
   inkscape:connector-curvature="0" /><path
   style="fill:none;stroke:#000000;stroke-width:0.99999672px"
   d="m 3519.0429,2675.9632 c 199.9996,0 354.166,129.1661 354.166,329.1652 0,191.6658 -116.6665,329.1652 -345.8327,329.1652 -191.6662,0 -354.1659,-154.166 -354.1659,-470.8312 l 0,-1974.9912 c 0,-316.66524 162.4997,-470.83122 354.1659,-470.83122 229.1662,0 345.8327,137.49938 345.8327,329.16519 0,199.99911 -154.1664,329.16523 -354.166,329.16523"
   id="path3002"
   class="curl"
   inkscape:connector-curvature="0" /><path
   style="fill:none;stroke:#000000;stroke-width:0.99999672px"
   d="m 2869.0442,3334.2936 c 0,-195.8325 -149.9997,-412.4982 -233.3328,-545.8309 L 1456.5471,959.30422 C 1373.2139,825.97148 1227.3809,600.97249 1227.3809,417.63998"
   id="path3000"
   class="straight"
   inkscape:connector-curvature="0" /><path
   style="fill:none;stroke:#000000;stroke-width:0.99999672px"
   d="M 2594.0448,946.80428 C 2460.7117,838.47143 2419.0452,759.30512 2419.0452,630.13903 c 0,-124.99944 74.9998,-212.49905 220.8328,-212.49905 124.9998,0 229.1662,99.99955 229.1662,304.1653 l 0,1779.15872 L 1856.5463,930.13768 C 1748.2132,759.30512 1627.3801,588.47255 1602.3801,417.63998"
   id="path2998"
   class="curl"
   inkscape:connector-curvature="0" /><path
   style="fill:none;stroke:#000000;stroke-width:0.99999672px"
   d="m 1502.3803,2805.1293 c 133.3331,108.3328 174.9997,187.4991 174.9997,316.6652 0,124.9995 -83.3332,212.4991 -220.8329,212.4991 -124.9997,0 -229.1662,-99.9996 -229.1662,-304.1653 l 0,-1779.1587 1037.4979,1624.9927 c 95.8331,154.166 233.3329,304.1653 233.3329,458.3313"
   id="path9"
   class="curl"
   inkscape:connector-curvature="0" />
</svg>