<?xml version="1.0" encoding="UTF-8" standalone="no"?>
<svg
   xmlns:dc="http://purl.org/dc/elements/1.1/"
   xmlns:cc="http://creativecommons.org/ns#"
   xmlns:rdf="http://www.w3.org/1999/02/22-rdf-syntax-ns#"
   xmlns:svg="http://www.w3.org/2000/svg"
   xmlns="http://www.w3.org/2000/svg"
   xmlns:sodipodi="http://sodipodi.sourceforge.net/DTD/sodipodi-0.dtd"
   xmlns:inkscape="http://www.inkscape.org/namespaces/inkscape"
   width="100%"
   height="100%"
   viewBox="0 0 3899 4167"
   version="1.1"
   xml:space="preserve"
   style="fill-rule:evenodd;clip-rule:evenodd;stroke-linejoin:round;stroke-miterlimit:1.41421;"
   id="svg2"
   inkscape:version="0.48.1 r9760"
   sodipodi:docname="79.svg"><metadata
   id="metadata15"><rdf:RDF><cc:Work
       rdf:about=""><dc:format>image/svg+xml</dc:format><dc:type
         rdf:resource="http://purl.org/dc/dcmitype/StillImage" /><dc:title /></cc:Work></rdf:RDF></metadata><defs
   id="defs13">
        
        
    
            
        </defs><sodipodi:namedview
   pagecolor="#ffffff"
   bordercolor="#666666"
   borderopacity="1"
   objecttolerance="10"
   gridtolerance="10"
   guidetolerance="10"
   inkscape:pageopacity="0"
   inkscape:pageshadow="2"
   inkscape:window-width="1280"
   inkscape:window-height="776"
   id="namedview11"
   showgrid="false"
   inkscape:zoom="0.14398848"
   inkscape:cx="3661.6128"
   inkscape:cy="2083.5"
   inkscape:window-x="0"
   inkscape:window-y="24"
   inkscape:window-maximized="1"
   inkscape:current-layer="svg2" />
    <path
   id="path3012"
   style="fill:none;stroke:#000000;stroke-width:0.99999803px"
   d="M 1707.4265,561.16415 C 1124.0928,677.8303 757.26801,1088.2158 757.26801,1867.3785 c 0,779.1627 366.82479,1189.6078 950.15849,1306.2739"
   inkscape:connector-curvature="0"
   sodipodi:nodetypes="ccc"
   class="straight" /><path
   id="path3000"
   style="fill:none;stroke:#000000;stroke-width:0.99999803px"
   d="m 2190.7601,3173.6524 c 583.3337,-116.6661 950.0253,-526.5911 950.0253,-1305.7493 0,-779.1582 -366.6903,-1190.0686 -950.024,-1306.73475"
   inkscape:connector-curvature="0"
   sodipodi:nodetypes="ccc"
   class="straight" /><path
   id="path2998"
   style="fill:none;stroke:#000000;stroke-width:0.99999803px"
   d="m 1144.8565,1868.265 c 3e-4,-608.3307 233.4031,-1148.77082 804.2368,-1148.76952 570.8337,10e-4 804.1671,537.38402 804.167,1145.71252 -2e-4,608.3285 -233.3333,1150.1118 -804.167,1150.1118 -570.8337,0 -804.2371,-538.7242 -804.2368,-1147.0548 z"
   inkscape:connector-curvature="0"
   sodipodi:nodetypes="scscs"
   class="curl" /><path
   id="path9"
   style="fill:none;stroke:#000000;stroke-width:0.99999803px"
   d="m 3561.6222,1868.133 c 0,-862.4906 -575.0283,-1519.4678 -1612.5289,-1519.46785 -1037.50061,-5e-5 -1612.50625,657.46075 -1612.5075,1519.95345 -0.001,862.4926 575.00689,1517.5329 1612.5075,1517.5329 1037.5006,0 1612.5289,-655.5279 1612.5289,-1518.0185 z"
   inkscape:connector-curvature="0"
   sodipodi:nodetypes="scscs"
   class="curl" />
</svg>