<?xml version="1.0" encoding="UTF-8" standalone="no"?>
<svg
   xmlns:dc="http://purl.org/dc/elements/1.1/"
   xmlns:cc="http://creativecommons.org/ns#"
   xmlns:rdf="http://www.w3.org/1999/02/22-rdf-syntax-ns#"
   xmlns:svg="http://www.w3.org/2000/svg"
   xmlns="http://www.w3.org/2000/svg"
   xmlns:sodipodi="http://sodipodi.sourceforge.net/DTD/sodipodi-0.dtd"
   xmlns:inkscape="http://www.inkscape.org/namespaces/inkscape"
   width="100%"
   height="100%"
   viewBox="0 0 4050 4167"
   version="1.1"
   xml:space="preserve"
   style="fill-rule:evenodd;clip-rule:evenodd;stroke-linejoin:round;stroke-miterlimit:1.41421;"
   id="svg2"
   inkscape:version="0.48.1 r9760"
   sodipodi:docname="P.svg"><metadata
   id="metadata15"><rdf:RDF><cc:Work
       rdf:about=""><dc:format>image/svg+xml</dc:format><dc:type
         rdf:resource="http://purl.org/dc/dcmitype/StillImage" /><dc:title></dc:title></cc:Work></rdf:RDF></metadata><defs
   id="defs13">
        
        
    
            
        </defs><sodipodi:namedview
   pagecolor="#ffffff"
   bordercolor="#666666"
   borderopacity="1"
   objecttolerance="10"
   gridtolerance="10"
   guidetolerance="10"
   inkscape:pageopacity="0"
   inkscape:pageshadow="2"
   inkscape:window-width="1280"
   inkscape:window-height="776"
   id="namedview11"
   showgrid="false"
   inkscape:zoom="0.13960365"
   inkscape:cx="3134.07"
   inkscape:cy="2083.5"
   inkscape:window-x="0"
   inkscape:window-y="24"
   inkscape:window-maximized="1"
   inkscape:current-layer="svg2" />
    <path
   style="fill:none;stroke:#000000;stroke-width:0.99999774px"
   d="m 1245.7492,417.32455 0,2916.65355"
   id="path3004"
   class="straight"
   inkscape:connector-curvature="0" /><path
   style="fill:none;stroke:#000000;stroke-width:0.99999774px"
   d="m 604.08253,2675.6478 c -200.00001,0 -354.16668,129.1661 -354.16668,329.1652 0,191.6658 116.66667,329.1651 345.83335,329.1651 191.66667,0 354.16667,-154.1659 354.16667,-470.8312 l 0,-1974.99113 c 0,-316.66525 -162.5,-470.83122 -354.16667,-470.83122 -229.16668,0 -345.83335,137.49938 -345.83335,329.16519 0,199.9991 154.16667,329.16516 354.16668,329.16516"
   id="path3002"
   class="curl"
   inkscape:connector-curvature="0" /><path
   style="fill:none;stroke:#000000;stroke-width:0.99999774px"
   d="m 1887.4159,2675.6478 c 200,0 354.1667,129.1661 354.1667,329.1652 0,191.6658 -116.6667,329.1651 -345.8334,329.1651 -191.6666,0 -354.1666,-154.1659 -354.1666,-470.8312 l 0,-1854.1583 c 0,-399.99825 366.6666,-641.66383 887.5,-641.66383 837.5,0 1141.6667,395.83156 1141.6667,795.82973 0,562.4975 -629.1667,920.8292 -1333.3334,920.8292 -183.3333,0 -366.6667,-33.3331 -541.6667,-79.1663"
   id="path3000"
   class="curl"
   inkscape:connector-curvature="0" /><path
   style="fill:none;stroke:#000000;stroke-width:0.99999774px"
   d="m 2883.2493,1708.9854 c 208.3333,-133.3327 329.1666,-329.1652 329.1666,-512.4977 0,-295.83199 -304.1666,-554.16416 -750,-554.16416"
   id="path2998"
   class="straight"
   inkscape:connector-curvature="0" /><path
   style="fill:none;stroke:#000000;stroke-width:0.99999774px"
   d="m 1699.9159,1692.3188 c 125,58.3331 254.1667,83.333 408.3333,83.333 333.3334,0 683.3334,-124.9994 683.3334,-466.6646 0,-258.3322 -208.3333,-474.99785 -529.1667,-474.99785 -212.5,0 -437.5,95.8329 -562.5,199.99915"
   id="path9"
   class="curl"
   inkscape:connector-curvature="0" />
</svg>