<?xml version="1.0" encoding="UTF-8" standalone="no"?>
<svg
   xmlns:dc="http://purl.org/dc/elements/1.1/"
   xmlns:cc="http://creativecommons.org/ns#"
   xmlns:rdf="http://www.w3.org/1999/02/22-rdf-syntax-ns#"
   xmlns:svg="http://www.w3.org/2000/svg"
   xmlns="http://www.w3.org/2000/svg"
   xmlns:sodipodi="http://sodipodi.sourceforge.net/DTD/sodipodi-0.dtd"
   xmlns:inkscape="http://www.inkscape.org/namespaces/inkscape"
   width="100%"
   height="100%"
   viewBox="0 0 4115 4167"
   version="1.1"
   xml:space="preserve"
   style="fill-rule:evenodd;clip-rule:evenodd;stroke-linejoin:round;stroke-miterlimit:1.41421;"
   id="svg2"
   inkscape:version="0.48.1 r9760"
   sodipodi:docname="81.svg"><metadata
   id="metadata15"><rdf:RDF><cc:Work
       rdf:about=""><dc:format>image/svg+xml</dc:format><dc:type
         rdf:resource="http://purl.org/dc/dcmitype/StillImage" /><dc:title /></cc:Work></rdf:RDF></metadata><defs
   id="defs13">
        
        
    
            
        </defs><sodipodi:namedview
   pagecolor="#ffffff"
   bordercolor="#666666"
   borderopacity="1"
   objecttolerance="10"
   gridtolerance="10"
   guidetolerance="10"
   inkscape:pageopacity="0"
   inkscape:pageshadow="2"
   inkscape:window-width="1280"
   inkscape:window-height="776"
   id="namedview11"
   showgrid="false"
   inkscape:zoom="0.125"
   inkscape:cx="3116.3845"
   inkscape:cy="2322.5092"
   inkscape:window-x="0"
   inkscape:window-y="24"
   inkscape:window-maximized="1"
   inkscape:current-layer="svg2" />
    <path
   id="path3018"
   style="fill:none;stroke:#000000;stroke-width:0.99999821px"
   d="M 1707.7909,561.91287 C 1124.4571,678.57901 757.79005,1091.0772 757.78939,1870.2385 c -6.6e-4,779.1614 366.66771,1187.4965 950.00151,1304.1627"
   inkscape:connector-curvature="0"
   sodipodi:nodetypes="ccc"
   class="straight" /><path
   style="fill:none;stroke:#000000;stroke-width:0.99999821px"
   d="m 2191.1247,3174.4012 c 62.5001,-12.5 116.6668,-24.9999 175.0002,-45.8332"
   id="path3010"
   class="straight"
   inkscape:connector-curvature="0" /><path
   style="fill:none;stroke:#000000;stroke-width:0.99999821px"
   d="m 1341.1239,2682.7367 c 79.1668,-91.6663 179.1669,-145.8327 300.0003,-145.8327 287.5003,0 566.6672,404.1649 762.5007,637.4972 308.3336,370.8316 612.5006,687.4969 987.5009,687.4969"
   id="path3006"
   class="curl"
   inkscape:connector-curvature="0" /><path
   style="fill:none;stroke:#000000;stroke-width:0.99999821px"
   d="m 1270.2905,2549.404 c 145.8335,-158.3327 333.3337,-258.3322 616.6673,-258.3322 250.0002,0 637.5005,141.666 987.5009,541.6642 491.6671,562.4975 658.3339,1008.3288 929.1675,1008.3288 187.5002,0 300.0003,-124.9994 300.0003,-316.6652 0,-199.9991 -175.0002,-299.9987 -375.0004,-299.9987"
   id="path3004"
   class="curl"
   inkscape:connector-curvature="0" /><path
   id="path3002"
   style="fill:none;stroke:#000000;stroke-width:0.99999821px"
   d="m 2232.7914,2961.9021 c -75.0001,33.3332 -170.8335,54.1664 -283.3336,54.1664 -570.8338,0 -804.2716,-539.9561 -804.2716,-1148.2865 0,-608.3304 233.4378,-1147.53651 804.2716,-1147.53651 570.8339,0 804.1664,539.56201 804.1669,1147.89141 5e-4,274.9975 -41.6662,522.9344 -141.6663,714.6002"
   inkscape:connector-curvature="0"
   sodipodi:nodetypes="cscssc"
   class="curl" /><path
   id="path3000"
   style="fill:none;stroke:#000000;stroke-width:0.99999821px"
   d="m 3045.2922,3041.0684 c 333.3336,-270.8321 516.5004,-690.0812 516.5004,-1173.4121 0,-862.4958 -574.8338,-1518.24248 -1612.3348,-1518.24248 -1037.50094,0 -1612.55992,656.32248 -1612.55892,1518.81358 10e-4,862.4911 575.05812,1518.6711 1612.55902,1518.6711 212.5002,0 408.3337,-29.1665 570.8339,-74.9997"
   inkscape:connector-curvature="0"
   sodipodi:nodetypes="ccsssc"
   class="curl" /><path
   id="path2998"
   style="fill:none;stroke:#000000;stroke-width:0.99999821px"
   d="m 2853.6253,2807.7361 c 179.1668,-208.3324 287.387,-519.6144 287.3871,-940.4408 10e-5,-779.1581 -366.5538,-1188.71469 -949.8877,-1305.38083"
   inkscape:connector-curvature="0"
   sodipodi:nodetypes="ccc"
   class="straight" /><path
   style="fill:none;stroke:#000000;stroke-width:0.99999821px"
   d="m 2103.6246,2528.5707 c 454.1671,208.3324 779.1674,874.9961 1054.1677,1045.8287"
   id="path9"
   class="straight"
   inkscape:connector-curvature="0" />
</svg>