<?xml version="1.0" encoding="UTF-8" standalone="no"?>
<svg
   xmlns:dc="http://purl.org/dc/elements/1.1/"
   xmlns:cc="http://creativecommons.org/ns#"
   xmlns:rdf="http://www.w3.org/1999/02/22-rdf-syntax-ns#"
   xmlns:svg="http://www.w3.org/2000/svg"
   xmlns="http://www.w3.org/2000/svg"
   xmlns:sodipodi="http://sodipodi.sourceforge.net/DTD/sodipodi-0.dtd"
   xmlns:inkscape="http://www.inkscape.org/namespaces/inkscape"
   width="100%"
   height="100%"
   viewBox="0 0 4434 4167"
   version="1.1"
   xml:space="preserve"
   style="fill-rule:evenodd;clip-rule:evenodd;stroke-linejoin:round;stroke-miterlimit:1.41421;"
   id="svg2"
   inkscape:version="0.48.1 r9760"
   sodipodi:docname="82.svg"><metadata
   id="metadata15"><rdf:RDF><cc:Work
       rdf:about=""><dc:format>image/svg+xml</dc:format><dc:type
         rdf:resource="http://purl.org/dc/dcmitype/StillImage" /><dc:title /></cc:Work></rdf:RDF></metadata><defs
   id="defs13">
        
        
    
            
        </defs><sodipodi:namedview
   pagecolor="#ffffff"
   bordercolor="#666666"
   borderopacity="1"
   objecttolerance="10"
   gridtolerance="10"
   guidetolerance="10"
   inkscape:pageopacity="0"
   inkscape:pageshadow="2"
   inkscape:window-width="1280"
   inkscape:window-height="776"
   id="namedview11"
   showgrid="false"
   inkscape:zoom="0.1690513"
   inkscape:cx="3646.2719"
   inkscape:cy="2429.3164"
   inkscape:window-x="0"
   inkscape:window-y="24"
   inkscape:window-maximized="1"
   inkscape:current-layer="svg2" />
    <path
   style="fill:none;stroke:#000000;stroke-width:0.99999863px"
   d="m 1252.155,413.28144 0,2916.65356"
   id="path3008"
   class="straight"
   inkscape:connector-curvature="0" /><path
   style="fill:none;stroke:#000000;stroke-width:0.99999863px"
   d="m 610.48716,2671.6047 c -200.00036,0 -354.1673,129.166 -354.1673,329.1651 0,191.6659 116.66688,329.1652 345.83395,329.1652 191.66701,0 354.1673,-154.1659 354.1673,-470.8312 l 0,-1974.99114 c 0,-316.66525 -162.50029,-470.83122 -354.1673,-470.83122 -229.16707,0 -345.83395,137.49938 -345.83395,329.16519 0,199.9991 154.16694,329.16517 354.1673,329.16517"
   id="path3006"
   class="curl"
   inkscape:connector-curvature="0" /><path
   style="fill:none;stroke:#000000;stroke-width:0.99999863px"
   d="m 3714.6594,2671.6047 c 200.0003,0 354.1673,129.166 354.1673,329.1651 0,191.6659 -116.6669,329.1652 -345.834,329.1652 -333.3339,0 -245.8338,-524.9976 -350.0006,-891.6626 -87.5002,-304.1653 -345.834,-491.6645 -641.6678,-562.4975 470.8342,-87.4996 845.8348,-354.1651 845.8348,-758.3299 0,-399.99826 -304.1672,-754.16334 -1141.6687,-754.16334 -520.8342,0 -887.5016,241.66559 -887.5016,641.66384 l 0,1970.8245 c 0,249.9988 112.5002,354.165 233.3338,354.165 141.6669,0 241.6671,-87.4996 241.6671,-204.1657 0,-124.9995 -100.0002,-208.3324 -220.8337,-208.3324"
   id="path3004"
   class="curl"
   inkscape:connector-curvature="0" /><path
   style="fill:none;stroke:#000000;stroke-width:0.99999863px"
   d="m 2889.6579,1621.6094 c 208.3337,-133.3328 329.1672,-287.4988 329.1672,-470.8313 0,-295.83197 -304.1672,-512.49767 -750.0013,-512.49767"
   id="path3002"
   class="straight"
   inkscape:connector-curvature="0" /><path
   style="fill:none;stroke:#000000;stroke-width:0.99999863px"
   d="m 1706.3224,1663.2758 c 125.0003,58.3331 254.1672,83.333 408.3341,83.333 333.3339,0 683.3346,-141.666 683.3346,-483.3312 0,-258.3321 -208.3337,-433.33136 -529.1676,-433.33136 -212.5004,0 -437.5008,95.8329 -562.5011,199.99906"
   id="path3000"
   class="curl"
   inkscape:connector-curvature="0" /><path
   style="fill:none;stroke:#000000;stroke-width:0.99999863px"
   d="m 3127.1583,3334.1017 c 0,-866.6628 -133.3336,-1087.4951 -445.8341,-1287.4942"
   id="path2998"
   class="straight"
   inkscape:connector-curvature="0" /><path
   style="fill:none;stroke:#000000;stroke-width:0.99999863px"
   d="m 2493.8239,2917.4369 c -125.0003,0 -220.8338,83.3329 -220.8338,204.1657 0,120.8328 95.8335,208.3324 241.6671,208.3324 120.8336,0 233.3338,-104.1662 233.3338,-320.8319 0,-799.9964 -300.0006,-1004.1621 -633.3345,-1004.1621 -154.1669,0 -283.3338,24.9999 -408.3341,83.3329"
   id="path9"
   class="curl"
   inkscape:connector-curvature="0" />
</svg>