<?xml version="1.0" encoding="UTF-8" standalone="no"?>
<svg
   xmlns:dc="http://purl.org/dc/elements/1.1/"
   xmlns:cc="http://creativecommons.org/ns#"
   xmlns:rdf="http://www.w3.org/1999/02/22-rdf-syntax-ns#"
   xmlns:svg="http://www.w3.org/2000/svg"
   xmlns="http://www.w3.org/2000/svg"
   xmlns:sodipodi="http://sodipodi.sourceforge.net/DTD/sodipodi-0.dtd"
   xmlns:inkscape="http://www.inkscape.org/namespaces/inkscape"
   width="100%"
   height="100%"
   viewBox="0 0 3581 4167"
   version="1.1"
   xml:space="preserve"
   style="fill-rule:evenodd;clip-rule:evenodd;stroke-linejoin:round;stroke-miterlimit:1.41421;"
   id="svg2"
   inkscape:version="0.48.1 r9760"
   sodipodi:docname="83.svg"><metadata
   id="metadata15"><rdf:RDF><cc:Work
       rdf:about=""><dc:format>image/svg+xml</dc:format><dc:type
         rdf:resource="http://purl.org/dc/dcmitype/StillImage" /><dc:title /></cc:Work></rdf:RDF></metadata><defs
   id="defs13">
        
        
    
            
        </defs><sodipodi:namedview
   pagecolor="#ffffff"
   bordercolor="#666666"
   borderopacity="1"
   objecttolerance="10"
   gridtolerance="10"
   guidetolerance="10"
   inkscape:pageopacity="0"
   inkscape:pageshadow="2"
   inkscape:window-width="1280"
   inkscape:window-height="776"
   id="namedview11"
   showgrid="false"
   inkscape:zoom="0.1690513"
   inkscape:cx="3508.3894"
   inkscape:cy="2267.9354"
   inkscape:window-x="0"
   inkscape:window-y="24"
   inkscape:window-maximized="1"
   inkscape:current-layer="svg2" />
    <path
   style="fill:none;stroke:#000000;stroke-width:0.99999726px"
   d="m 3002.2962,469.14454 c 129.1665,-45.83312 233.3331,0 287.4997,83.33296 54.1666,83.33296 66.6666,216.6657 -41.6666,283.33207 -99.9999,62.49972 -204.1665,24.99989 -437.4996,-166.66592 -224.9998,-183.33251 -549.9995,-320.8319 -987.4991,-320.8319 -712.4993,0 -1283.33212,370.83167 -1283.33212,945.82905 0,487.4979 354.16633,708.3302 1037.49902,837.4963 754.166,141.666 1133.3323,174.9992 1133.3323,433.3314 0,295.832 -341.6664,462.4979 -808.3326,462.4979 -508.3329,0 -987.49907,-149.9993 -987.49907,-512.4977 0,-191.6658 141.66657,-237.4989 204.16647,-237.4989 95.8332,0 154.1665,49.9998 154.1665,120.8328 0,70.833 -58.3333,116.6661 -129.1665,116.6661"
   id="path3006"
   inkscape:connector-curvature="0"
   class="curl" /><path
   style="fill:none;stroke:#000000;stroke-width:0.99999726px"
   d="m 577.29844,3248.2988 c -129.16655,45.8331 -233.33312,0 -287.49973,-83.333 -54.16662,-83.333 -62.49994,-216.6657 45.83329,-283.3321 99.99991,-62.4997 199.99981,-24.9999 433.33293,166.666 274.99977,224.9989 662.49937,329.1651 1091.66567,329.1651 787.4993,0 1391.6654,-399.9982 1391.6654,-916.6625 0,-633.3305 -449.9996,-770.8299 -1020.8324,-891.6627 -720.8327,-154.166 -1149.999,-195.8324 -1149.999,-483.3312 0,-191.66576 229.1665,-391.66486 699.9994,-391.66486 470.8329,0 891.6658,216.66569 891.6658,516.66436 0,191.6658 -141.6665,237.4989 -204.1664,237.4989 -95.8333,0 -154.1666,-49.9998 -154.1666,-120.8328 0,-70.833 58.3333,-116.6661 129.1666,-116.6661"
   id="path3004"
   inkscape:connector-curvature="0"
   class="curl" /><path
   inkscape:connector-curvature="0"
   style="fill:none;stroke:#000000;stroke-width:0.99999726px"
   d="m 614.79841,2610.8016 c 229.16645,312.4986 508.33289,516.6644 970.83239,574.9974"
   id="path3002"
   class="straight" /><path
   inkscape:connector-curvature="0"
   style="fill:none;stroke:#000000;stroke-width:0.99999726px"
   d="m 2060.6304,535.81091 c 416.6663,58.33307 770.8326,258.33218 929.1658,658.33039"
   id="path3000"
   class="straight" /><path
   inkscape:connector-curvature="0"
   style="fill:none;stroke:#000000;stroke-width:0.99999726px"
   d="m 2056.4637,3194.1323 c 641.6661,-49.9997 929.1658,-370.8316 929.1658,-712.4968 0,-420.8314 -441.6662,-533.3309 -924.9991,-616.6639"
   id="path2998"
   class="straight" /><path
   inkscape:connector-curvature="0"
   style="fill:none;stroke:#000000;stroke-width:0.99999726px"
   d="m 1589.7975,1785.8053 c -420.8329,-83.3329 -774.99928,-216.6657 -774.99928,-599.9973 0,-349.99843 320.83308,-595.83066 770.83258,-654.16374"
   id="path9"
   class="straight" />
</svg>