<?xml version="1.0" encoding="UTF-8" standalone="no"?>
<svg
   xmlns:dc="http://purl.org/dc/elements/1.1/"
   xmlns:cc="http://creativecommons.org/ns#"
   xmlns:rdf="http://www.w3.org/1999/02/22-rdf-syntax-ns#"
   xmlns:svg="http://www.w3.org/2000/svg"
   xmlns="http://www.w3.org/2000/svg"
   xmlns:sodipodi="http://sodipodi.sourceforge.net/DTD/sodipodi-0.dtd"
   xmlns:inkscape="http://www.inkscape.org/namespaces/inkscape"
   width="100%"
   height="100%"
   viewBox="0 0 3707 4167"
   version="1.1"
   xml:space="preserve"
   style="fill-rule:evenodd;clip-rule:evenodd;stroke-linejoin:round;stroke-miterlimit:1.41421;"
   id="svg2"
   inkscape:version="0.48.1 r9760"
   sodipodi:docname="84.svg"><metadata
   id="metadata15"><rdf:RDF><cc:Work
       rdf:about=""><dc:format>image/svg+xml</dc:format><dc:type
         rdf:resource="http://purl.org/dc/dcmitype/StillImage" /><dc:title /></cc:Work></rdf:RDF></metadata><defs
   id="defs13">
        
        
    
            
        </defs><sodipodi:namedview
   pagecolor="#ffffff"
   bordercolor="#666666"
   borderopacity="1"
   objecttolerance="10"
   gridtolerance="10"
   guidetolerance="10"
   inkscape:pageopacity="0"
   inkscape:pageshadow="2"
   inkscape:window-width="1280"
   inkscape:window-height="776"
   id="namedview11"
   showgrid="false"
   inkscape:zoom="0.1690513"
   inkscape:cx="3228.9077"
   inkscape:cy="2337.0987"
   inkscape:window-x="0"
   inkscape:window-y="24"
   inkscape:window-maximized="1"
   inkscape:current-layer="svg2" />
    <path
   style="fill:none;stroke:#000000;stroke-width:0.99999815px"
   d="m 1849.3815,416.66237 0,2916.65363"
   id="path3000"
   class="straight"
   inkscape:connector-curvature="0" /><path
   inkscape:connector-curvature="0"
   style="fill:none;stroke:#000000;stroke-width:0.99999815px"
   d="m 1207.7143,2674.9856 c -200.0002,0 -354.16697,129.1661 -354.16697,329.1652 0,191.6658 116.66677,329.1652 345.83367,329.1652 191.6668,0 354.1669,-154.166 354.1669,-470.8312 l 0,-2445.82243 c -104.1667,0 -329.1669,62.49972 -383.3336,233.33229 C 1061.8808,479.16209 903.54737,383.32919 666.04716,383.32919 c -325.00028,0 -454.16706,212.49905 -454.16706,404.16486 0,229.16565 166.66681,349.99845 354.16698,349.99845 204.16684,0 316.66694,-158.33265 308.3336,-279.16544"
   id="path2998"
   class="curl" /><path
   inkscape:connector-curvature="0"
   style="fill:none;stroke:#000000;stroke-width:0.99999815px"
   d="m 2828.549,858.32706 c -8.3333,120.83279 104.1668,279.16544 308.3337,279.16544 187.5001,0 354.1669,-120.8328 354.1669,-349.99845 0,-191.66581 -129.1668,-404.16486 -454.167,-404.16486 -237.5002,0 -395.8337,95.8329 -504.1671,266.66547 -54.1668,-170.83257 -279.167,-233.33229 -383.3337,-233.33229 l 0,2445.82243 c 0,316.6652 162.5001,470.8312 354.167,470.8312 229.1668,0 345.8336,-137.4994 345.8336,-329.1652 0,-199.9991 -154.1668,-329.1652 -354.167,-329.1652"
   id="path9"
   class="curl" />
</svg>