<?xml version="1.0" encoding="UTF-8" standalone="no"?>
<svg
   xmlns:dc="http://purl.org/dc/elements/1.1/"
   xmlns:cc="http://creativecommons.org/ns#"
   xmlns:rdf="http://www.w3.org/1999/02/22-rdf-syntax-ns#"
   xmlns:svg="http://www.w3.org/2000/svg"
   xmlns="http://www.w3.org/2000/svg"
   xmlns:sodipodi="http://sodipodi.sourceforge.net/DTD/sodipodi-0.dtd"
   xmlns:inkscape="http://www.inkscape.org/namespaces/inkscape"
   width="100%"
   height="100%"
   viewBox="0 0 4507 4167"
   version="1.1"
   xml:space="preserve"
   style="fill-rule:evenodd;clip-rule:evenodd;stroke-linejoin:round;stroke-miterlimit:1.41421;"
   id="svg2"
   inkscape:version="0.48.1 r9760"
   sodipodi:docname="85.svg"><metadata
   id="metadata15"><rdf:RDF><cc:Work
       rdf:about=""><dc:format>image/svg+xml</dc:format><dc:type
         rdf:resource="http://purl.org/dc/dcmitype/StillImage" /><dc:title /></cc:Work></rdf:RDF></metadata><defs
   id="defs13">
        
        
    
            
        </defs><sodipodi:namedview
   pagecolor="#ffffff"
   bordercolor="#666666"
   borderopacity="1"
   objecttolerance="10"
   gridtolerance="10"
   guidetolerance="10"
   inkscape:pageopacity="0"
   inkscape:pageshadow="2"
   inkscape:window-width="1280"
   inkscape:window-height="776"
   id="namedview11"
   showgrid="false"
   inkscape:zoom="0.1690513"
   inkscape:cx="3514.1043"
   inkscape:cy="2705.9695"
   inkscape:window-x="0"
   inkscape:window-y="24"
   inkscape:window-maximized="1"
   inkscape:current-layer="svg2" />
    <path
   style="fill:none;stroke:#000000;stroke-width:0.9999963px"
   d="M 2176.8274,3182.4068 C 1593.4958,3065.7406 1226.8301,2653.2425 1226.8301,1874.0793 l 0,-1462.49344"
   id="path2998"
   class="straight"
   inkscape:connector-curvature="0" /><path
   inkscape:connector-curvature="0"
   style="fill:none;stroke:#000000;stroke-width:0.9999963px"
   d="m 460.16567,1069.9162 c -199.99943,0 -354.16566,-129.16604 -354.16566,-329.16515 0,-191.6658 116.66633,-329.16519 345.83235,-329.16519 191.66612,0 354.16565,154.16598 354.16565,470.83123 l 0,991.66221 c 0,862.4961 574.99839,1520.8265 1516.66239,1520.8265 799.9977,0 1374.996,-658.3304 1374.996,-1520.8265 l 0,-991.66221 c 0,-316.66525 162.4996,-470.83123 354.1657,-470.83123 229.166,0 345.8324,137.49939 345.8324,329.16519 0,199.99911 -154.1663,329.16515 -354.1657,329.16515"
   id="path3000"
   class="curl" /><path
   inkscape:connector-curvature="0"
   style="fill:none;stroke:#000000;stroke-width:0.9999963px"
   d="m 2922.6587,907.41697 c -149.9996,0 -266.666,-95.8329 -266.666,-245.83223 0,-145.83268 87.4998,-249.99888 258.3326,-249.99888 145.833,0 308.3325,70.83302 308.3325,387.49827 l 0,1074.99517 c 0,608.3306 -191.6661,1149.9949 -858.3309,1149.9949 -599.9983,0 -749.9979,-541.6643 -749.9979,-1149.9949 l 0,-1074.99517 c 0,-316.66525 162.4996,-387.49827 308.3325,-387.49827 170.8328,0 258.3326,104.1662 258.3326,249.99888 0,149.99933 -116.6663,245.83223 -266.6659,245.83223"
   id="path9"
   class="curl" />
</svg>