<?xml version="1.0" encoding="UTF-8" standalone="no"?>
<svg
   xmlns:dc="http://purl.org/dc/elements/1.1/"
   xmlns:cc="http://creativecommons.org/ns#"
   xmlns:rdf="http://www.w3.org/1999/02/22-rdf-syntax-ns#"
   xmlns:svg="http://www.w3.org/2000/svg"
   xmlns="http://www.w3.org/2000/svg"
   xmlns:sodipodi="http://sodipodi.sourceforge.net/DTD/sodipodi-0.dtd"
   xmlns:inkscape="http://www.inkscape.org/namespaces/inkscape"
   width="100%"
   height="100%"
   viewBox="0 0 5746 4167"
   version="1.1"
   xml:space="preserve"
   style="fill-rule:evenodd;clip-rule:evenodd;stroke-linejoin:round;stroke-miterlimit:1.41421;"
   id="svg2"
   inkscape:version="0.48.1 r9760"
   sodipodi:docname="87.svg"><metadata
   id="metadata15"><rdf:RDF><cc:Work
       rdf:about=""><dc:format>image/svg+xml</dc:format><dc:type
         rdf:resource="http://purl.org/dc/dcmitype/StillImage" /><dc:title /></cc:Work></rdf:RDF></metadata><defs
   id="defs13">
        
        
    
            
        </defs><sodipodi:namedview
   pagecolor="#ffffff"
   bordercolor="#666666"
   borderopacity="1"
   objecttolerance="10"
   gridtolerance="10"
   guidetolerance="10"
   inkscape:pageopacity="0"
   inkscape:pageshadow="2"
   inkscape:window-width="1280"
   inkscape:window-height="776"
   id="namedview11"
   showgrid="false"
   inkscape:zoom="0.11953732"
   inkscape:cx="4340.6472"
   inkscape:cy="2139.2845"
   inkscape:window-x="0"
   inkscape:window-y="24"
   inkscape:window-maximized="1"
   inkscape:current-layer="svg2" />
    <path
   inkscape:connector-curvature="0"
   style="fill:none;stroke:#000000;stroke-width:1.00000012px"
   d="m 1919.4602,3332.9141 c 8.3334,-308.332 -87.5004,-608.3306 -200.0009,-929.1625 L 1252.7904,1070.4242 C 1173.6234,849.59188 1090.2897,632.92618 1056.9562,416.26048"
   id="path3006"
   class="straight" /><path
   inkscape:connector-curvature="0"
   style="fill:none;stroke:#000000;stroke-width:1.00000012px"
   d="m 3894.4694,3332.9141 c 8.3334,-308.332 -87.5004,-608.3306 -200.0009,-929.1625 L 3227.7997,1070.4242 C 3148.6326,849.59188 3065.2989,632.92618 3031.9654,416.26048"
   id="path3002"
   class="straight" /><path
   inkscape:connector-curvature="0"
   style="fill:none;stroke:#000000;stroke-width:1.00000012px"
   d="M 2802.7977,403.76054 C 2765.2975,799.5921 2573.6299,1170.4238 2081.961,2453.7514 1706.9592,1578.7553 1531.9584,1141.2572 1531.9584,799.5921 c 0,-316.66525 216.6677,-387.49826 341.6683,-387.49826 150.0007,0 237.5011,91.66625 237.5011,216.66569 0,129.16609 -100.0005,212.49905 -233.3344,212.49905"
   id="path3008"
   class="curl" /><path
   inkscape:connector-curvature="0"
   style="fill:none;stroke:#000000;stroke-width:1.00000012px"
   d="m 1165.29,2674.5837 c -200.0009,0 -354.16828,129.1661 -354.16828,329.1652 0,191.6658 129.16727,329.1652 358.33498,329.1652 191.6676,0 366.6684,-112.4995 366.6684,-429.1648 0,-399.9982 -520.8358,-1616.6594 -691.66989,-2016.65759 C 715.28794,587.09305 581.95398,416.26048 390.28642,416.26048 c -229.16774,0 -345.834946,137.49939 -345.834946,329.1652 0,199.9991 154.167386,329.16522 354.168316,329.16522"
   id="path3004"
   class="curl" /><path
   inkscape:connector-curvature="0"
   style="fill:none;stroke:#000000;stroke-width:1.00000012px"
   d="m 3181.9661,2849.5829 c -145.834,0 -258.3345,95.8329 -258.3345,241.6656 0,141.666 95.8337,241.6656 262.5012,241.6656 191.6676,0 325.0015,-112.4995 325.0015,-429.1648 0,-399.9982 -462.5021,-1499.9932 -633.3363,-1899.9914 -183.3342,420.8314 -650.003,1462.4934 -650.003,2004.1576 0,241.6656 133.3339,324.9986 279.168,324.9986 175.0008,0 270.8346,-104.1662 270.8346,-249.9989 0,-149.9993 -116.6673,-249.9989 -266.668,-249.9989"
   id="path3000"
   class="curl" /><path
   inkscape:connector-curvature="0"
   style="fill:none;stroke:#000000;stroke-width:1.00000012px"
   d="m 4361.1383,841.25858 c -133.334,0 -233.3344,-83.33296 -233.3344,-212.49905 0,-124.99944 129.1672,-216.66569 279.1679,-216.66569 125.0006,0 408.3353,83.33296 220.8344,608.33056 -79.1671,229.1657 -250.0012,591.6641 -570.836,1433.327 C 3681.9684,1578.7553 3348.6336,757.92562 3348.6336,416.26048"
   id="path2998"
   class="curl" /><path
   inkscape:connector-curvature="0"
   style="fill:none;stroke:#000000;stroke-width:1.00000012px"
   d="m 5340.3095,1074.5909 c 200.0009,0 354.1683,-129.16612 354.1683,-329.16522 0,-191.66581 -116.6672,-329.1652 -345.8349,-329.1652 -191.6676,0 -325.0015,170.83257 -454.1688,470.83123 -183.3342,420.83149 -691.6699,1579.15959 -691.6699,2120.82379 0,241.6656 133.334,324.9986 279.168,324.9986 175.0008,0 270.8346,-104.1662 270.8346,-249.9989 0,-149.9993 -116.6672,-249.9989 -266.6679,-249.9989"
   id="path9"
   class="curl" />
</svg>