<?xml version="1.0" encoding="UTF-8" standalone="no"?>
<svg
   xmlns:dc="http://purl.org/dc/elements/1.1/"
   xmlns:cc="http://creativecommons.org/ns#"
   xmlns:rdf="http://www.w3.org/1999/02/22-rdf-syntax-ns#"
   xmlns:svg="http://www.w3.org/2000/svg"
   xmlns="http://www.w3.org/2000/svg"
   xmlns:sodipodi="http://sodipodi.sourceforge.net/DTD/sodipodi-0.dtd"
   xmlns:inkscape="http://www.inkscape.org/namespaces/inkscape"
   width="100%"
   height="100%"
   viewBox="0 0 4015 4167"
   version="1.1"
   xml:space="preserve"
   style="fill-rule:evenodd;clip-rule:evenodd;stroke-linejoin:round;stroke-miterlimit:1.41421;"
   id="svg2"
   inkscape:version="0.48.1 r9760"
   sodipodi:docname="88.svg"><metadata
   id="metadata15"><rdf:RDF><cc:Work
       rdf:about=""><dc:format>image/svg+xml</dc:format><dc:type
         rdf:resource="http://purl.org/dc/dcmitype/StillImage" /><dc:title /></cc:Work></rdf:RDF></metadata><defs
   id="defs13">
        
        
    
            
        </defs><sodipodi:namedview
   pagecolor="#ffffff"
   bordercolor="#666666"
   borderopacity="1"
   objecttolerance="10"
   gridtolerance="10"
   guidetolerance="10"
   inkscape:pageopacity="0"
   inkscape:pageshadow="2"
   inkscape:window-width="1280"
   inkscape:window-height="776"
   id="namedview11"
   showgrid="false"
   inkscape:zoom="0.080816997"
   inkscape:cx="4053.4316"
   inkscape:cy="2205.1328"
   inkscape:window-x="0"
   inkscape:window-y="24"
   inkscape:window-maximized="1"
   inkscape:current-layer="svg2" />
    <g
   id="g3026"
   class="straight"><path
     id="path3012"
     d="M 1934.6926,1788.5716 1555.5273,1238.574 C 1305.5282,876.07564 1201.3619,630.24341 1172.1954,413.57771"
     style="fill:none;stroke:#000000;stroke-width:0.99999595px"
     inkscape:connector-curvature="0" /><path
     id="path3002"
     d="m 2076.3588,1955.2375 379.1653,549.9975 c 249.9991,362.4984 354.1654,608.3306 383.3319,824.9963"
     style="fill:none;stroke:#000000;stroke-width:0.99999595px"
     inkscape:connector-curvature="0" /></g><path
   inkscape:connector-curvature="0"
   style="fill:none;stroke:#000000;stroke-width:0.99999595px"
   d="m 2426.3575,838.57581 c -124.9995,-33.33319 -179.166,-83.33296 -179.166,-212.49905 0,-124.99944 74.9997,-216.6657 216.6659,-216.6657 124.9995,0 204.1659,79.16631 204.1659,199.99911 0,133.33273 -74.9997,324.99854 -220.8325,512.49773 -108.333,141.666 -216.6659,283.332 -312.4989,412.4981"
   id="path3014"
   class="curl" /><path
   inkscape:connector-curvature="0"
   style="fill:none;stroke:#000000;stroke-width:0.99999595px"
   d="m 3426.3539,1030.2416 c 199.9993,0 354.1654,-129.16607 354.1654,-329.16518 0,-191.66581 -116.6663,-287.49871 -299.9989,-287.49871 -304.1656,0 -579.1646,499.99776 -741.664,754.16329 -124.9996,195.8325 -299.9989,395.8316 -441.6651,591.664"
   id="path3010"
   class="curl" /><path
   inkscape:connector-curvature="0"
   style="fill:none;stroke:#000000;stroke-width:0.99999595px"
   d="m 1584.6939,2905.2332 c 124.9995,33.3332 179.166,83.333 179.166,212.4991 0,124.9994 -74.9997,216.6657 -216.6659,216.6657 -124.9995,0 -204.1659,-79.1664 -204.1659,-199.9991 0,-133.3328 74.9997,-324.9986 220.8325,-512.4977 108.333,-141.6661 216.6659,-283.3321 312.4989,-412.4982"
   id="path3004"
   class="curl" /><path
   inkscape:connector-curvature="0"
   style="fill:none;stroke:#000000;stroke-width:0.99999595px"
   d="m 584.6975,2713.5674 c -199.99928,0 -354.16539,129.1661 -354.16539,329.1652 0,191.6658 116.66625,287.4987 299.99892,287.4987 304.16557,0 579.16457,-499.9977 741.66397,-754.1633 124.9996,-195.8324 299.9989,-395.8315 441.6651,-591.664"
   id="path3000"
   class="curl" /><path
   id="path2998"
   style="fill:none;stroke:#000000;stroke-width:0.99999595px"
   d="m 1813.8597,838.57581 c 133.3329,0 233.3325,-83.33296 233.3325,-212.49905 0,-124.99944 -87.4997,-216.6657 -237.4991,-216.6657 -129.1662,0 -220.8326,95.83291 -216.6659,229.16564 8.3333,137.49939 124.9995,316.66525 266.6657,516.6644 129.1662,183.3325 179.166,249.9988 333.3321,462.4979 266.6657,362.4984 591.6645,841.6629 870.8302,1241.6611 187.4993,266.6655 329.1655,470.8312 520.8315,470.8312 229.1658,0 341.6654,-124.9994 341.6654,-316.6652 0,-199.9991 -174.9994,-299.9987 -374.9987,-299.9987"
   inkscape:connector-curvature="0"
   sodipodi:nodetypes="cssccccssc"
   class="curl" /><path
   id="path9"
   style="fill:none;stroke:#000000;stroke-width:0.99999595px"
   d="m 2197.1917,2905.2332 c -133.3329,0 -233.3325,83.333 -233.3325,212.4991 0,124.9994 87.4997,216.6657 237.4991,216.6657 129.1662,0 220.8326,-95.8329 216.6659,-229.1657 -8.3333,-137.4994 -124.9995,-316.6652 -266.6657,-516.6643 C 2022.1923,2405.2355 1972.1925,2338.5691 1818.0264,2126.07 1551.3607,1763.5717 1226.3618,1284.4071 947.19619,884.40893 759.69687,617.74346 618.03071,413.57771 426.36474,413.57771 c -229.16584,0 -341.665431,124.99944 -341.665431,316.66525 0,199.9991 174.999371,299.99864 374.998641,299.99864"
   inkscape:connector-curvature="0"
   sodipodi:nodetypes="cssccccssc"
   class="curl" />
</svg>