<?xml version="1.0" encoding="UTF-8" standalone="no"?>
<svg
   xmlns:dc="http://purl.org/dc/elements/1.1/"
   xmlns:cc="http://creativecommons.org/ns#"
   xmlns:rdf="http://www.w3.org/1999/02/22-rdf-syntax-ns#"
   xmlns:svg="http://www.w3.org/2000/svg"
   xmlns="http://www.w3.org/2000/svg"
   xmlns:sodipodi="http://sodipodi.sourceforge.net/DTD/sodipodi-0.dtd"
   xmlns:inkscape="http://www.inkscape.org/namespaces/inkscape"
   width="100%"
   height="100%"
   viewBox="0 0 3828 4167"
   version="1.1"
   xml:space="preserve"
   style="fill-rule:evenodd;clip-rule:evenodd;stroke-linejoin:round;stroke-miterlimit:1.41421;"
   id="svg2"
   inkscape:version="0.48.1 r9760"
   sodipodi:docname="89.svg"><metadata
   id="metadata15"><rdf:RDF><cc:Work
       rdf:about=""><dc:format>image/svg+xml</dc:format><dc:type
         rdf:resource="http://purl.org/dc/dcmitype/StillImage" /><dc:title /></cc:Work></rdf:RDF></metadata><defs
   id="defs13">
        
        
    
            
        </defs><sodipodi:namedview
   pagecolor="#ffffff"
   bordercolor="#666666"
   borderopacity="1"
   objecttolerance="10"
   gridtolerance="10"
   guidetolerance="10"
   inkscape:pageopacity="0"
   inkscape:pageshadow="2"
   inkscape:window-width="1280"
   inkscape:window-height="776"
   id="namedview11"
   showgrid="false"
   inkscape:zoom="0.13960365"
   inkscape:cx="3431.9895"
   inkscape:cy="2083.5"
   inkscape:window-x="0"
   inkscape:window-y="24"
   inkscape:window-maximized="1"
   inkscape:current-layer="svg2" />
    <path
   style="fill:none;stroke:#000000;stroke-width:0.99999595px"
   d="m 1120.6595,419.61989 c 29.1665,216.66569 162.4994,445.83133 383.3319,824.99631 l 483.3316,833.3296 0,1258.3277"
   id="path3000"
   class="straight"
   inkscape:connector-curvature="0" /><path
   inkscape:connector-curvature="0"
   style="fill:none;stroke:#000000;stroke-width:0.99999595px"
   d="m 2408.1548,844.61798 c -124.9996,-33.33318 -179.166,-83.33296 -179.166,-212.49904 0,-124.99944 74.9997,-216.6657 216.6658,-216.6657 124.9996,0 204.166,79.16631 204.166,199.9991 0,229.16564 -420.8318,891.66266 -533.3314,1091.66176 -45.8332,-70.833 -199.9993,-324.9985 -349.9988,-616.6639 -104.1662,-208.33238 -191.6659,-354.16506 -191.6659,-445.83132 0,-133.33274 87.4997,-229.16564 216.6659,-229.16564 149.9994,0 237.4991,91.66626 237.4991,216.6657 0,129.16608 -99.9996,212.49904 -233.3325,212.49904"
   id="path3002"
   class="curl" /><path
   inkscape:connector-curvature="0"
   style="fill:none;stroke:#000000;stroke-width:0.99999595px"
   d="m 3408.1511,1036.2838 c 199.9993,0 354.1654,-129.1661 354.1654,-329.1652 0,-191.66581 -116.6662,-287.49871 -299.9989,-287.49871 -445.8317,0 -974.9964,1166.66141 -1174.9957,1499.99331 l 0,945.8291 c 0,316.6652 162.4994,470.8312 354.1654,470.8312 229.1658,0 345.832,-137.4994 345.832,-329.1652 0,-199.9991 -154.1661,-329.1652 -354.1653,-329.1652"
   id="path2998"
   class="curl" /><path
   inkscape:connector-curvature="0"
   style="fill:none;stroke:#000000;stroke-width:0.99999595px"
   d="m 1345.6586,2677.9431 c -199.9992,0 -354.16533,129.1661 -354.16533,329.1652 0,191.6658 116.66623,329.1652 345.83203,329.1652 191.666,0 354.1654,-154.166 354.1654,-470.8312 l 0,-737.4967 C 1566.4912,1932.1131 1187.3259,1290.4493 928.9935,890.45111 753.99413,619.61899 599.82803,419.61989 408.16206,419.61989 c -229.16583,0 -341.665425,124.99944 -341.665425,316.66525 0,199.9991 174.999365,299.99866 374.998635,299.99866"
   id="path9"
   class="curl" />
</svg>