<?xml version="1.0" encoding="UTF-8" standalone="no"?>
<svg
   xmlns:dc="http://purl.org/dc/elements/1.1/"
   xmlns:cc="http://creativecommons.org/ns#"
   xmlns:rdf="http://www.w3.org/1999/02/22-rdf-syntax-ns#"
   xmlns:svg="http://www.w3.org/2000/svg"
   xmlns="http://www.w3.org/2000/svg"
   xmlns:sodipodi="http://sodipodi.sourceforge.net/DTD/sodipodi-0.dtd"
   xmlns:inkscape="http://www.inkscape.org/namespaces/inkscape"
   width="100%"
   height="100%"
   viewBox="0 0 3355 4167"
   version="1.1"
   xml:space="preserve"
   style="fill-rule:evenodd;clip-rule:evenodd;stroke-linejoin:round;stroke-miterlimit:1.41421;"
   id="svg2"
   inkscape:version="0.48.1 r9760"
   sodipodi:docname="90.svg"><metadata
   id="metadata15"><rdf:RDF><cc:Work
       rdf:about=""><dc:format>image/svg+xml</dc:format><dc:type
         rdf:resource="http://purl.org/dc/dcmitype/StillImage" /><dc:title /></cc:Work></rdf:RDF></metadata><defs
   id="defs13">
        
        
    
            
        </defs><sodipodi:namedview
   pagecolor="#ffffff"
   bordercolor="#666666"
   borderopacity="1"
   objecttolerance="10"
   gridtolerance="10"
   guidetolerance="10"
   inkscape:pageopacity="0"
   inkscape:pageshadow="2"
   inkscape:window-width="1280"
   inkscape:window-height="776"
   id="namedview11"
   showgrid="false"
   inkscape:zoom="0.125"
   inkscape:cx="2482"
   inkscape:cy="1794.9203"
   inkscape:window-x="0"
   inkscape:window-y="24"
   inkscape:window-maximized="1"
   inkscape:current-layer="svg2" />
    <path
   inkscape:connector-curvature="0"
   style="fill:none;stroke:#000000;stroke-width:0.99999708px"
   d="m 2539.6787,412.78188 c -29.1667,195.83246 -166.6665,449.99798 -424.9995,824.99632 l -379.1661,549.9975"
   id="path3006"
   class="straight" /><path
   inkscape:connector-curvature="0"
   style="fill:none;stroke:#000000;stroke-width:0.99999708px"
   d="m 798.01436,3329.4355 c 29.16662,-195.8325 166.66644,-449.998 424.99944,-824.9963 l 379.1661,-549.9976"
   id="path3000"
   class="straight" /><path
   id="path2998"
   style="fill:none;stroke:#000000;stroke-width:0.99999708px"
   d="m 81.348664,3329.4355 c 191.666406,0 337.499546,-204.1658 520.832626,-470.8312 270.83296,-399.9983 591.66591,-833.3296 858.33221,-1241.6611 320.8329,-487.4979 508.3326,-712.49686 520.8326,-904.16266 12.5,-170.83257 -87.4999,-299.99866 -283.333,-299.99866 -191.6664,0 -345.8328,99.99955 -487.4993,299.99866 C 1073.014,483.6149 889.6809,412.78188 698.01449,412.78188 c -258.33298,0 -504.16598,179.16586 -504.16598,454.16463 0,229.16569 183.33309,349.99839 333.33288,349.99839 166.66644,0 287.49961,-158.3326 283.33295,-279.16537"
   inkscape:connector-curvature="0"
   sodipodi:nodetypes="ccccscsssc"
   class="curl" /><path
   id="path9"
   style="fill:none;stroke:#000000;stroke-width:0.99999708px"
   d="m 3256.3443,412.78188 c -191.6664,0 -337.4995,204.16575 -520.8326,470.83122 -270.8329,399.9982 -591.6658,833.3296 -858.3321,1241.6611 -320.8329,487.4978 -508.3327,712.4968 -520.8327,904.1626 -12.5,170.8326 87.4999,299.9987 283.333,299.9987 191.6664,0 345.8328,-99.9996 487.4993,-299.9987 137.4998,229.1657 320.8329,299.9987 512.4993,299.9987 258.333,0 504.166,-179.1659 504.166,-454.1647 0,-229.1656 -183.3331,-349.9984 -333.3329,-349.9984 -166.6664,0 -287.4996,158.3326 -283.3329,279.1654"
   inkscape:connector-curvature="0"
   sodipodi:nodetypes="ccccscsssc"
   class="curl" />
</svg>